<svg id="Capa_1" enable-background="new 0 0 512 512" height="512" viewBox="0 0 512 512" width="512" xmlns="http://www.w3.org/2000/svg"><g><path d="m494.549 90.047c-10.316-5.957-22.029 1.525-29.553 10.511-3.442 4.11-12.127 14.622-23.66 29.574v-17.972c0-12.406-10.094-22.5-22.5-22.5h-101.589v-12.189c0-17.131-13.938-31.067-31.068-31.067h-4.873v-21.104c0-6.763-2.631-13.117-7.415-17.901-4.785-4.771-11.137-7.399-17.885-7.399-13.95 0-25.3 11.35-25.3 25.3v21.104h-4.873c-17.131 0-31.068 13.937-31.068 31.067v12.189h-101.589c-12.406 0-22.5 10.094-22.5 22.5v63.862h-12.464c-.67 0-1.333.034-1.985.101-9.444.962-16.886 8.716-17.407 18.281h-12.752c-9.374 0-17 7.626-17 17v3.128c0 9.374 7.626 17 17 17h12.752c.557 10.227 9.029 18.383 19.392 18.383h1.518v48.376c0 7.509 4.504 13.974 10.946 16.871v55.369c0 12.406 10.094 22.5 22.5 22.5h34.3v8.109c0 17.695 13.153 32.37 30.196 34.785l-24.034 66.009c-.837 2.3-.5 4.863.904 6.868 1.403 2.004 3.696 3.198 6.144 3.198h37.891c3.153 0 5.97-1.972 7.048-4.935l25.763-70.785h19.319v68.22c0 4.143 3.357 7.5 7.5 7.5h35.6c4.143 0 7.5-3.357 7.5-7.5v-68.22h19.319l25.763 70.785c1.078 2.963 3.895 4.935 7.048 4.935h37.891c2.447 0 4.74-1.194 6.144-3.198 1.404-2.005 1.741-4.568.904-6.868l-24.034-66.009c17.043-2.415 30.196-17.09 30.196-34.785v-8.109h34.3c12.406 0 22.5-10.094 22.5-22.5v-118.469c25.768-46.825 49.31-104.934 58.886-131.166 4.017-11.009 4.637-24.894-5.675-30.849zm-248.843-64.747c0-5.68 4.62-10.3 10.3-10.3 2.75 0 5.341 1.073 7.286 3.014 1.943 1.942 3.014 4.53 3.014 7.286v21.104h-20.6zm-35.941 52.171c0-8.859 7.208-16.067 16.068-16.067h60.346c8.86 0 16.068 7.208 16.068 16.067v12.189h-92.482zm-185.697 137.061v-3.128c0-1.103.897-2 2-2h12.698v7.128h-12.698c-1.103 0-2-.897-2-2zm29.698 15.937v-6.437-22.128-6.437c0-2.451 1.994-4.445 4.446-4.445h41.697v43.893h-41.697c-2.452 0-4.446-1.994-4.446-4.446zm138.663-54.448c4.143 0 7.5-3.357 7.5-7.5v-22.811c0-2.286 1.86-4.146 4.146-4.146s4.146 1.86 4.146 4.146v42.471 49.576 42.47c0 2.286-1.86 4.146-4.146 4.146s-4.146-1.86-4.146-4.146v-81.702c0-4.143-3.357-7.5-7.5-7.5s-7.5 3.357-7.5 7.5v66.616l-70.02-27.816v-48.712l70.02-27.816v7.725c0 4.141 3.357 7.499 7.5 7.499zm41.191 47.856-10.398 3.471v-28.758l10.399 3.471c4.7 1.568 7.858 5.952 7.858 10.908.001 4.955-3.158 9.339-7.859 10.908zm-148.268 26.038v48.376c0 1.93-1.57 3.5-3.5 3.5h-3.622c-1.93 0-3.5-1.57-3.5-3.5v-48.376zm87.972 247.085h-21.926l22.109-60.72h21.917zm92.982 0h-20.6v-60.72h20.6zm72.382 0-22.1-60.72h21.917l22.108 60.72zm30.848-95.86c0 11.105-9.039 20.141-20.15 20.141h-186.76c-11.111 0-20.15-9.035-20.15-20.141v-8.109h227.061v8.109zm116.596-285.389c-16.009 43.852-47.799 117.093-76.165 159.302l-33.351-19.255c7.465-15.281 18.17-33.54 31.802-54.146 2.285-3.454 1.338-8.107-2.117-10.393-3.455-2.287-8.108-1.337-10.393 2.117-16.07 24.291-28.051 45.138-35.846 62.321-.018.039-.036.076-.053.115-2.914 6.433-5.243 12.354-6.97 17.741-10.569 3.32-19.995 10.617-25.272 19.781-5.438 9.443-6.355 20.168-2.656 31.016 2.806 8.229 2.123 14.633-2.03 19.036-2.828 3-3.759 7.28-2.427 11.169 1.316 3.847 4.632 6.626 8.65 7.255 5.651.884 10.881 1.283 15.726 1.283 24.072 0 38.536-9.862 46.772-19.026 11.029-12.271 15.275-28.33 14.238-39.341 3.957-4.326 7.988-9.396 12.05-15.057.074-.094.14-.198.211-.296 2.67-3.733 5.353-7.717 8.036-11.907v93.065c0 4.136-3.364 7.5-7.5 7.5h-325.661c-4.136 0-7.5-3.364-7.5-7.5v-54.142c8.372-1.767 14.676-9.208 14.676-18.098v-48.376h5.622l79.01 31.386c.562 10.057 8.897 18.072 19.092 18.072 10.558 0 19.146-8.589 19.146-19.146v-37.066l15.147-5.055h.001c10.832-3.616 18.109-13.718 18.109-25.137 0-11.42-7.278-21.521-18.11-25.137l-15.147-5.055v-37.067c0-10.558-8.589-19.146-19.146-19.146-10.195 0-18.53 8.015-19.092 18.072l-79.01 31.387h-20.298v-63.863c0-4.136 3.364-7.5 7.5-7.5h325.66c4.136 0 7.5 3.364 7.5 7.5v37.849c-4.052 5.488-8.273 11.303-12.605 17.406-2.398 3.378-1.604 8.06 1.773 10.457 3.381 2.399 8.061 1.604 10.457-1.773 24.093-33.936 44.771-59.028 50.535-65.911 5.372-6.414 9.69-7.489 10.532-7.164.746.59 1.972 4.871-.896 12.727zm-94.963 191.23c.295 6.261-2.116 17.702-10.524 27.058-9.506 10.577-24.059 15.277-42.374 13.753 4.266-7.843 4.668-17.635 1.036-28.284-2.297-6.732-1.806-13.021 1.458-18.689 3.447-5.987 9.979-10.917 17.107-13.062l29.352 16.947zm5.428-14.187-22.405-12.935-6.251-3.609c.727-2.128 1.568-4.367 2.504-6.695l30.701 17.725c-1.535 1.957-3.053 3.801-4.549 5.514z"/><path d="m311.805 205.469h-22.129c-4.143 0-7.5 3.357-7.5 7.5s3.357 7.5 7.5 7.5h22.129c4.143 0 7.5-3.357 7.5-7.5s-3.358-7.5-7.5-7.5z"/><path d="m278.921 193.352c1.919 0 3.839-.732 5.304-2.196l17.315-17.315c2.929-2.93 2.929-7.678 0-10.607-2.93-2.928-7.678-2.928-10.607 0l-17.315 17.315c-2.929 2.93-2.929 7.678 0 10.607 1.464 1.463 3.384 2.196 5.303 2.196z"/><path d="m284.225 234.782c-2.93-2.928-7.678-2.928-10.607 0-2.929 2.93-2.929 7.678 0 10.607l17.315 17.315c1.465 1.464 3.385 2.196 5.304 2.196s3.839-.732 5.304-2.196c2.929-2.93 2.929-7.678 0-10.607z"/></g></svg>