<svg fill="none" height="512" viewBox="0 0 24 24" width="512" xmlns="http://www.w3.org/2000/svg"><g clip-rule="evenodd" fill="rgb(0,0,0)" fill-rule="evenodd"><path d="m1.75 8.5c0-.41421.33579-.75.75-.75h6.5c.41421 0 .75.33579.75.75s-.33579.75-.75.75h-6.5c-.41421 0-.75-.33579-.75-.75z"/><path d="m14.25 8.5c0-.41421.3358-.75.75-.75h6.5c.4142 0 .75.33579.75.75s-.3358.75-.75.75h-6.5c-.4142 0-.75-.33579-.75-.75z"/><path d="m14.25 15.5c0-.4142.3358-.75.75-.75h6.5c.4142 0 .75.3358.75.75s-.3358.75-.75.75h-6.5c-.4142 0-.75-.3358-.75-.75z"/><path d="m1.75 15.5c0-.4142.33579-.75.75-.75h6.5c.41421 0 .75.3358.75.75s-.33579.75-.75.75h-6.5c-.41421 0-.75-.3358-.75-.75z"/><path d="m14.25 4.5c0-.41421.3358-.75.75-.75h6.5c.4142 0 .75.33579.75.75v15c0 .4142-.3358.75-.75.75h-6.5c-.4142 0-.75-.3358-.75-.75s.3358-.75.75-.75h5.75v-13.5h-5.75c-.4142 0-.75-.33579-.75-.75z"/><path d="m1.75 4.5c0-.41421.33579-.75.75-.75h6.5c.41421 0 .75.33579.75.75s-.33579.75-.75.75h-5.75v13.5h5.75c.41421 0 .75.3358.75.75s-.33579.75-.75.75h-6.5c-.41421 0-.75-.3358-.75-.75z"/><path d="m16.25 15.5c0-.4142.3358-.75.75-.75h4.5c.4142 0 .75.3358.75.75v4c0 .4142-.3358.75-.75.75h-4.5c-.4142 0-.75-.3358-.75-.75zm1.5.75v2.5h3v-2.5z"/><path d="m1.75 15.5c0-.4142.33579-.75.75-.75h4.5c.41421 0 .75.3358.75.75v4c0 .4142-.33579.75-.75.75h-4.5c-.41421 0-.75-.3358-.75-.75zm1.5.75v2.5h3v-2.5z"/><path d="m16.25 4.5c0-.41421.3358-.75.75-.75h4.5c.4142 0 .75.33579.75.75v4c0 .41421-.3358.75-.75.75h-4.5c-.4142 0-.75-.33579-.75-.75zm1.5.75v2.5h3v-2.5z"/><path d="m1.75 4.5c0-.41421.33579-.75.75-.75h4.5c.41421 0 .75.33579.75.75v4c0 .41421-.33579.75-.75.75h-4.5c-.41421 0-.75-.33579-.75-.75zm1.5.75v2.5h3v-2.5z"/><path d="m12 2.75c.4142 0 .75.33579.75.75v2c0 .41421-.3358.75-.75.75s-.75-.33579-.75-.75v-2c0-.41421.3358-.75.75-.75z"/><path d="m12 7.75c.4142 0 .75.33579.75.75v2c0 .4142-.3358.75-.75.75s-.75-.3358-.75-.75v-2c0-.41421.3358-.75.75-.75z"/><path d="m12 12.75c.4142 0 .75.3358.75.75v2c0 .4142-.3358.75-.75.75s-.75-.3358-.75-.75v-2c0-.4142.3358-.75.75-.75z"/><path d="m12 17.75c.4142 0 .75.3358.75.75v2c0 .4142-.3358.75-.75.75s-.75-.3358-.75-.75v-2c0-.4142.3358-.75.75-.75z"/></g></svg>