<svg id="Capa_1" enable-background="new 0 0 511.99 511.99" height="512" viewBox="0 0 511.99 511.99" width="512" xmlns="http://www.w3.org/2000/svg"><g><path d="m502.898 211.214-89.757-38.467 36.267-90.667c2.229-5.571.923-11.935-3.32-16.177-4.243-4.244-10.608-5.549-16.178-3.321l-90.667 36.268-38.467-89.759c-2.363-5.515-7.786-9.091-13.787-9.091-6 0-11.423 3.576-13.787 9.091l-38.468 89.757-90.667-36.268c-5.568-2.227-11.934-.922-16.177 3.321s-5.549 10.606-3.321 16.177l40.028 100.069c-42.144.082-84.263 16.162-116.347 48.247-64.333 64.333-64.333 169.011 0 233.345 64.331 64.332 169.01 64.336 233.345 0 32.084-32.084 48.163-74.203 48.246-116.347l100.069 40.028c5.595 2.236 11.951.906 16.178-3.321 4.243-4.243 5.549-10.606 3.32-16.177l-36.267-90.667 89.757-38.467c5.515-2.364 9.091-7.787 9.091-13.787s-3.576-11.423-9.091-13.787zm-242.516 231.312c-52.637 52.636-138.282 52.636-190.919 0-52.636-52.637-52.636-138.282 0-190.919 52.636-52.635 138.281-52.637 190.919 0 52.637 52.637 52.637 138.283 0 190.919zm127.486-187.078c-7.483 3.207-11.042 11.798-8.018 19.358l28.705 71.761-82.098-32.839c-5.312-25.939-16.893-50.834-34.743-72.24l11.094-11.094c8.5-8.499 13.181-19.8 13.181-31.819 0-12.02-4.681-23.32-13.181-31.82-5.857-5.858-15.355-5.858-21.213 0s-5.858 15.355 0 21.213c5.849 5.849 5.849 15.365 0 21.213l-11.094 11.094c-21.405-17.851-46.3-29.432-72.24-34.744l-32.839-82.097 71.761 28.705c7.56 3.021 16.151-.535 19.358-8.019l30.447-71.042 30.446 71.042c3.207 7.483 11.798 11.041 19.358 8.019l71.762-28.705-28.705 71.762c-3.024 7.559.534 16.151 8.018 19.358l71.042 30.447z"/><path d="m359.234 11.388-11.48 27.716c-3.17 7.654.465 16.428 8.118 19.599 7.669 3.176 16.435-.48 19.599-8.118l11.48-27.716c3.17-7.654-.465-16.428-8.118-19.599-7.652-3.169-16.429.463-19.599 8.118z"/><path d="m489.121 125.039-27.716 11.48c-7.653 3.17-11.288 11.945-8.118 19.598 3.165 7.642 11.935 11.293 19.599 8.118l27.716-11.48c7.653-3.17 11.288-11.945 8.118-19.598-3.171-7.654-11.946-11.288-19.599-8.118z"/><path d="m489.121 324.962c7.667 3.177 16.435-.479 19.599-8.118 3.17-7.653-.465-16.428-8.118-19.598l-27.716-11.48c-7.651-3.172-16.429.463-19.599 8.118-3.17 7.653.465 16.428 8.118 19.598z"/><path d="m84.856 125.039c-7.655-3.17-16.429.464-19.599 8.118s.464 16.428 8.118 19.599l27.716 11.48c7.685 3.182 16.441-.495 19.599-8.118 3.17-7.654-.464-16.428-8.118-19.599z"/><path d="m378.833 446.732c7.653-3.17 11.288-11.945 8.118-19.599l-11.48-27.716c-3.17-7.654-11.946-11.288-19.599-8.118s-11.288 11.945-8.118 19.599l11.48 27.716c3.165 7.642 11.934 11.292 19.599 8.118z"/><path d="m195.145 3.27c-7.654 3.17-11.288 11.945-8.118 19.599l11.48 27.716c3.166 7.642 11.934 11.293 19.599 8.118 7.654-3.17 11.288-11.945 8.118-19.599l-11.48-27.716c-3.171-7.654-11.944-11.288-19.599-8.118z"/></g></svg>