<?xml version="1.0" encoding="UTF-8"?>
<svg xmlns="http://www.w3.org/2000/svg" id="Layer_1" data-name="Layer 1" viewBox="0 0 512 512" width="512" height="512"><path d="M386.939,212.115a137.117,137.117,0,0,0,6.712-42.464C393.651,93.75,331.9,32,256,32S118.35,93.75,118.35,169.651a137.116,137.116,0,0,0,6.712,42.464A137.89,137.89,0,0,0,32,342.349C32,418.25,93.75,480,169.651,480A136.989,136.989,0,0,0,256,449.462,136.989,136.989,0,0,0,342.35,480C418.25,480,480,418.25,480,342.349A137.89,137.89,0,0,0,386.939,212.115ZM139.683,169.651a116.317,116.317,0,1,1,226.558,37.128A137.525,137.525,0,0,0,256,235.237a137.526,137.526,0,0,0-110.241-28.458A115.848,115.848,0,0,1,139.683,169.651Zm146.285,172.7A115.856,115.856,0,0,1,256,420.2a116.2,116.2,0,0,1-23.892-114.974,138.239,138.239,0,0,0,47.784,0A115.846,115.846,0,0,1,285.968,342.349ZM256,285.969a116.937,116.937,0,0,1-14.831-.941A116.936,116.936,0,0,1,256,264.5a116.927,116.927,0,0,1,14.832,20.525A116.926,116.926,0,0,1,256,285.969Zm-36.413-5.844a116.91,116.91,0,0,1-64.768-53.152,116.926,116.926,0,0,1,14.832-.942,115.72,115.72,0,0,1,70.679,24A138.244,138.244,0,0,0,219.587,280.125Zm52.083-30.089a115.72,115.72,0,0,1,70.679-24,116.934,116.934,0,0,1,14.831.941,116.911,116.911,0,0,1-64.768,53.151A138.243,138.243,0,0,0,271.67,250.036ZM53.333,342.349a116.52,116.52,0,0,1,79.905-110.473,138.393,138.393,0,0,0,78.172,68.01,137.482,137.482,0,0,0,28.92,134.777,116.252,116.252,0,0,1-187-92.313ZM342.35,458.667a115.72,115.72,0,0,1-70.679-24,137.481,137.481,0,0,0,28.92-134.777,138.394,138.394,0,0,0,78.172-68.01A116.319,116.319,0,0,1,342.35,458.667Z"/></svg>
