<svg id="Capa_1" enable-background="new 0 0 512.001 512.001" height="512" viewBox="0 0 512.001 512.001" width="512" xmlns="http://www.w3.org/2000/svg"><g><path d="m94.657 481.161h-73.766c-2.817 0-4.344-1.804-4.87-2.58-.525-.773-1.633-2.855-.593-5.464l14.225-35.7h45.174c4.142 0 7.5-3.357 7.5-7.5s-3.358-7.5-7.5-7.5h-39.198l25.491-63.975c5.488-13.801 8.271-28.319 8.271-43.151v-83.935c2.888 5.234 8.265 8.524 14.316 8.672.142.004.284.006.426.006 6.305 0 11.994-3.442 14.921-9.059l59.273-113.753c2.992-5.743 2.466-12.551-1.372-17.766-3.84-5.215-10.182-7.739-16.556-6.589l-52.078 9.406c-7.456 1.194-15.591 7.452-18.931 15.205v-80.767c0-3.236 2.638-5.87 5.88-5.87h226.681l-44.211 38.219c-5.872 5.075-9.239 12.437-9.239 20.198v26.442c-10.79 3.233-18.677 13.249-18.677 25.076v29.769c0 14.434 11.743 26.177 26.177 26.177s26.177-11.743 26.177-26.177v-29.769c0-11.827-7.887-21.843-18.677-25.076v-26.442c0-3.4 1.476-6.627 4.048-8.851l59.308-51.268c4.9-3.781 2.964-13.366-4.964-13.298h-246.622c-11.513 0-20.88 9.362-20.88 20.87v87.209l-25.318-15.908-17.277-12.07c-3.394-2.371-8.071-1.542-10.444 1.854-2.372 3.396-1.542 8.071 1.854 10.443l14.224 9.937v309.392l-15.936 39.995c-2.565 6.436-1.776 13.7 2.111 19.435 3.89 5.737 10.352 9.163 17.286 9.163h73.767c4.142 0 7.5-3.357 7.5-7.5s-3.358-7.5-7.501-7.5zm172.521-340.385v29.769c0 6.163-5.014 11.177-11.177 11.177s-11.177-5.014-11.177-11.177v-29.769c0-6.163 5.014-11.177 11.177-11.177s11.177 5.014 11.177 11.177zm-183.41-18.427c1.444-2.771 4.143-4.759 7.219-5.313l52.079-9.406c.931-.169 1.5.298 1.81.72.31.421.588 1.101.149 1.941l-59.273 113.752c-.438.841-1.171.976-1.677.989-.523-.013-1.23-.209-1.627-1.07l-22.128-48.073c-1.307-2.84-1.225-6.19.219-8.962l7.911-15.182c.034-.061.065-.124.097-.186zm-51.338 5.488 21.961 13.798v4.63l-7.154 13.73c-3.572 6.856-3.775 15.143-.542 22.165l7.697 16.721v116.409c0 12.926-2.426 25.579-7.208 37.604l-14.754 37.028z"/><path d="m494.572 427.568v-309.392l14.224-9.937c3.396-2.372 4.226-7.048 1.854-10.443-2.373-3.396-7.048-4.225-10.443-1.854l-17.277 12.069-25.318 15.908v-87.208c0-11.508-9.367-20.87-20.88-20.87h-79.543c-4.142 0-7.5 3.357-7.5 7.5s3.358 7.5 7.5 7.5h79.543c3.242 0 5.88 2.634 5.88 5.87v80.768c-2.907-6.965-10.544-13.712-18.93-15.205l-52.079-9.406c-6.373-1.149-12.716 1.374-16.556 6.589-3.838 5.215-4.364 12.022-1.372 17.766l59.273 113.753c2.927 5.617 8.616 9.059 14.921 9.059.142 0 .284-.002.426-.006 6.051-.148 11.429-3.438 14.316-8.672v83.935c0 14.832 2.783 29.35 8.273 43.156l25.489 63.97h-39.197c-4.142 0-7.5 3.357-7.5 7.5s3.358 7.5 7.5 7.5h45.174l14.225 35.701c1.039 2.607-.069 4.689-.594 5.463-.526.776-2.053 2.58-4.87 2.58h-198.302l-11.404-60.36v-27.608h17.868c9.194 0 16.673-7.479 16.673-16.673v-77.101c0-9.194-7.479-16.674-16.673-16.674h-41.023c-9.194 0-16.673 7.479-16.673 16.674v14.882h-28.849c-9.193 0-16.673 7.479-16.673 16.673v45.546c0 9.193 7.479 16.673 16.673 16.673h17.869v27.608l-11.404 60.36h-89.385c-4.142 0-7.5 3.357-7.5 7.5s3.358 7.5 7.5 7.5h361.303c6.934 0 13.396-3.426 17.286-9.163 3.887-5.734 4.677-12.999 2.112-19.434zm-65.019-203.606c-.396.861-1.104 1.058-1.627 1.07-.51-.015-1.239-.148-1.677-.989l-59.272-113.753c-.438-.841-.161-1.521.149-1.941.266-.361.719-.755 1.43-.755.119 0 .246.011.38.035l52.079 9.406c3.076.555 5.774 2.542 7.219 5.313l15.221 29.21c.032.062.063.125.097.186l7.911 15.182c1.444 2.771 1.526 6.122.219 8.962zm28.058 91.329v-116.409l7.697-16.721c3.232-7.022 3.03-15.309-.542-22.165l-7.154-13.73v-4.63l21.961-13.798v262.085l-14.751-37.022c-4.786-12.031-7.211-24.684-7.211-37.61zm-201.035-15.871c0-.923.75-1.674 1.673-1.674h41.024c.923 0 1.673.751 1.673 1.674v14.882h-44.371v-14.882zm-45.522 77.1v-45.546c0-.923.75-1.673 1.673-1.673h88.22v47.219c0 .923-.75 1.673-1.673 1.673h-86.546c-.923 0-1.674-.75-1.674-1.673zm55.352 16.673v20.811h-20.81v-20.811zm-22.094 35.811h23.378l9.854 52.157h-43.086z"/><path d="m252.457 365.199c1.919 0 3.838-.732 5.303-2.196l7.41-7.409c2.929-2.929 2.93-7.678.001-10.606-2.929-2.929-7.677-2.93-10.606-.001l-7.41 7.409c-2.929 2.929-2.93 7.678-.001 10.606 1.464 1.465 3.384 2.197 5.303 2.197z"/></g></svg>