<svg id="Capa_1" enable-background="new 0 0 512 512" height="512" viewBox="0 0 512 512" width="512" xmlns="http://www.w3.org/2000/svg"><g><path d="m331 155c0-41.355-33.645-75-75-75s-75 33.645-75 75 33.645 75 75 75 75-33.645 75-75zm-120 0c0-24.813 20.187-45 45-45s45 20.187 45 45-20.187 45-45 45-45-20.187-45-45z"/><circle cx="256" cy="155" r="15"/><path d="m457.497 326.844c-28.313-13.159-66.376-23.139-110.489-29.009l-5.929-13.34c42.087-27.743 69.921-75.426 69.921-129.495 0-85.467-69.532-155-155-155s-155 69.533-155 155c0 54.069 27.834 101.752 69.921 129.495l-5.93 13.343c-44.112 5.87-82.174 15.85-110.487 29.007-44.222 20.551-53.504 44.055-53.504 60.155 0 16.125 9.31 39.663 53.66 60.23 30.215 14.011 71.476 24.409 119.323 30.068.599.071 1.192.105 1.78.105 7.497 0 13.976-5.611 14.878-13.24.973-8.227-4.907-15.685-13.135-16.658-44.098-5.216-83.243-14.979-110.226-27.492-22.717-10.534-36.28-22.876-36.28-33.013 0-10.113 13.513-22.43 36.146-32.948 21.344-9.918 50.342-18.114 83.391-23.693l-8.244 18.549c-2.062 4.64-1.638 10.008 1.13 14.266 2.767 4.257 7.5 6.826 12.577 6.826h200c5.077 0 9.811-2.569 12.577-6.826 2.768-4.258 3.192-9.626 1.13-14.266l-8.246-18.553c33.049 5.579 62.048 13.775 83.392 23.694 22.634 10.519 36.147 22.837 36.147 32.951 0 10.299-15.724 27.567-60.038 42.338-35.018 11.672-79.447 19.151-127.778 21.69l3.422-3.422c5.858-5.858 5.858-15.355 0-21.213-5.857-5.858-15.355-5.858-21.213 0l-30 30c-5.858 5.858-5.858 15.355 0 21.213l30 30c2.929 2.93 6.768 4.394 10.607 4.394s7.678-1.464 10.606-4.394c5.858-5.858 5.858-15.355 0-21.213l-5.239-5.239c52.325-2.513 100.771-10.585 139.082-23.355 66.576-22.193 80.551-50.75 80.551-70.799 0-16.1-9.282-39.605-53.503-60.156zm-326.497-171.844c0-68.925 56.075-125 125-125s125 56.075 125 125-56.075 125-125 125-125-56.075-125-125zm48.081 185 18.43-41.469c18.058 7.386 37.804 11.469 58.489 11.469s40.431-4.083 58.489-11.469l18.43 41.469z"/></g></svg>