<svg height="512" viewBox="0 0 64 64" width="512" xmlns="http://www.w3.org/2000/svg"><g id="_26-Content" data-name="26-Content"><path d="m49 57c-5.748 0-7.786-2.038-9-3.256-.529-.528-.768-.744-1-.744a54.078 54.078 0 0 1 -7.1-1 5.781 5.781 0 0 1 -5.9-6 1 1 0 0 1 1-1h12.465l1.178-1.768-3.243-2.432 1.2-1.6 4 3a1 1 0 0 1 .232 1.355l-2 3a1 1 0 0 1 -.832.445h-11.873a3.644 3.644 0 0 0 3.873 3 1 1 0 0 1 .2.02 56.193 56.193 0 0 0 6.8.98 3.39 3.39 0 0 1 2.411 1.33c1.127 1.127 2.67 2.67 7.589 2.67a12.122 12.122 0 0 0 4.99-1.179 8.006 8.006 0 0 1 3.01-.821h2v2h-2a6.491 6.491 0 0 0 -2.245.669 14 14 0 0 1 -5.755 1.331z"/><path d="m59 42h-5a1 1 0 0 1 -.625-.219l-10-8 1.25-1.562 9.726 7.781h4.649z"/><path d="m63 57h-4a1 1 0 0 1 -1-1v-16a1 1 0 0 1 1-1h4a1 1 0 0 1 1 1v16a1 1 0 0 1 -1 1zm-3-2h2v-14h-2z"/><path d="m23 56.36a.987.987 0 0 1 -.383-.076 1 1 0 0 1 -.617-.924v-3.36h-3.36a1 1 0 0 1 -.707-1.707l21.09-21.1a4.085 4.085 0 0 1 6.977 2.887 4.182 4.182 0 0 1 -.46 1.9 4.3 4.3 0 0 1 -.718.985l-11.756 11.743-1.413-1.416 11.747-11.731a2.283 2.283 0 0 0 .367-.5 2.138 2.138 0 0 0 .233-.981 2.085 2.085 0 0 0 -3.566-1.47l-19.38 19.39h1.946a1 1 0 0 1 1 1v1.946l3.863-3.863 1.414 1.417-5.57 5.57a1 1 0 0 1 -.707.29z"/><path d="m15 60a1 1 0 0 1 -.91-1.414l3.637-8 1.82.828-2.533 5.573 5.574-2.533.827 1.82-8 3.637a.991.991 0 0 1 -.415.089z"/><path d="m17.637 53.306h2v4.115h-2z" transform="matrix(.707 -.707 .707 .707 -33.691 29.398)"/><path d="m38.732 31.182h2v6.172h-2z" transform="matrix(.707 -.707 .707 .707 -12.594 38.134)"/><path d="m29 42h-2v-5a1.006 1.006 0 0 1 .168-.555l4-6a1 1 0 0 1 .832-.445h7v2h-6.465l-3.535 5.3z"/><path d="m35 26h-32a3 3 0 0 1 -3-3v-20a3 3 0 0 1 3-3h32a3 3 0 0 1 3 3v20a3 3 0 0 1 -3 3zm-32-24a1 1 0 0 0 -1 1v20a1 1 0 0 0 1 1h32a1 1 0 0 0 1-1v-20a1 1 0 0 0 -1-1z"/><path d="m61 32h-13v-2h13a1 1 0 0 0 1-1v-20a1 1 0 0 0 -1-1h-24v-2h24a3 3 0 0 1 3 3v20a3 3 0 0 1 -3 3z"/><path d="m25 64h-24a1 1 0 0 1 -1-1v-26a1 1 0 0 1 .293-.707l6-6a1 1 0 0 1 .707-.293h18a1 1 0 0 1 1 1v14h-2v-13h-16.586l-5.414 5.414v24.586h22v-9h2v10a1 1 0 0 1 -1 1z"/><path d="m32 25h2v4h-2z"/><path d="m7 38h-6v-2h5v-5h2v6a1 1 0 0 1 -1 1z"/><path d="m21 47h-16a1 1 0 0 1 -1-1v-6a1 1 0 0 1 1-1h16a1 1 0 0 1 1 1v6a1 1 0 0 1 -1 1zm-15-2h14v-4h-14z"/><path d="m4 49h2v2h-2z"/><path d="m8 49h8v2h-8z"/><path d="m4 53h10v2h-10z"/><path d="m4 57h9v2h-9z"/><path d="m45 21a1 1 0 0 1 -1-1v-8a1 1 0 0 1 1.555-.832l6 4a1 1 0 0 1 0 1.664l-6 4a1.006 1.006 0 0 1 -.555.168zm1-7.132v4.264l3.2-2.132z"/><path d="m55 28a3 3 0 1 1 3-3 3 3 0 0 1 -3 3zm0-4a1 1 0 1 0 1 1 1 1 0 0 0 -1-1z"/><path d="m57 24h4v2h-4z"/><path d="m39 24h14v2h-14z"/><path d="m17 18h-12a1 1 0 0 1 -1-1v-12a1 1 0 0 1 1-1h12a1 1 0 0 1 1 1v12a1 1 0 0 1 -1 1zm-11-2h10v-10h-10z"/><path d="m5.707 14.707-1.414-1.414 5-5a1 1 0 0 1 1.414 0l2.293 2.293 1.293-1.293a1 1 0 0 1 1.414 0l2 2-1.414 1.414-1.293-1.293-1.293 1.293a1 1 0 0 1 -1.414 0l-2.293-2.293z"/><path d="m20 4h2v2h-2z"/><path d="m24 4h10v2h-10z"/><path d="m20 8h14v2h-14z"/><path d="m20 12h12v2h-12z"/><path d="m20 16h14v2h-14z"/><path d="m4 20h2v2h-2z"/><path d="m8 20h24v2h-24z"/></g></svg>